SplineFontDB: 3.0
FontName: Handbook
FullName: Handbook
FamilyName: Handbook
Weight: Book
Copyright: (c) Paul Koning
Version: 1.0
ItalicAngle: 0
UnderlinePosition: 0
UnderlineWidth: 0
Ascent: 800
Descent: 200
InvalidEm: 0
sfntRevision: 0x00010000
LayerCount: 2
Layer: 0 1 "Back" 1
Layer: 1 1 "Fore" 0
XUID: [1021 82 -590886842 5483728]
StyleMap: 0x0040
FSType: 0
OS2Version: 0
OS2_WeightWidthSlopeOnly: 0
OS2_UseTypoMetrics: 0
CreationTime: -2082535712
ModificationTime: 1461867665
PfmFamily: 17
TTFWeight: 400
TTFWidth: 5
LineGap: 0
VLineGap: 0
Panose: 2 11 6 3 5 3 2 2 2 4
OS2TypoAscent: 941
OS2TypoAOffset: 0
OS2TypoDescent: -201
OS2TypoDOffset: 0
OS2TypoLinegap: 0
OS2WinAscent: 941
OS2WinAOffset: 0
OS2WinDescent: 201
OS2WinDOffset: 0
HheadAscent: 941
HheadAOffset: 0
HheadDescent: -201
HheadDOffset: 0
OS2SubXSize: 0
OS2SubYSize: 0
OS2SubXOff: 0
OS2SubYOff: 0
OS2SupXSize: 0
OS2SupYSize: 0
OS2SupXOff: 0
OS2SupYOff: 0
OS2StrikeYSize: 0
OS2StrikeYPos: 0
OS2FamilyClass: 1283
OS2Vendor: 'PfEd'
OS2CodePages: 00000001.c0000000
OS2UnicodeRanges: 00000001.00000000.00000000.00000000
Lookup: 258 0 0 "'kern' Horizontal Kerning in Latin lookup 0" { "'kern' Horizontal Kerning in Latin lookup 0-1" [153,15,0] } ['kern' ('DFLT' <'dflt' > 'latn' <'dflt' > ) ]
MarkAttachClasses: 1
DEI: 91125
KernClass2: 4 5 "'kern' Horizontal Kerning in Latin lookup 0-1"
 1 r
 1 t
 1 f
 13 a c d e g o q
 1 f
 1 t
 1 v
 0 {} 0 {} 0 {} 0 {} 0 {} 0 {} -98 {} 0 {} 42 {} 17 {} 0 {} -78 {} 0 {} -68 {} -98 {} 0 {} -98 {} -59 {} 39 {} 0 {}
ShortTable: maxp 16
  1
  0
  42
  122
  3
  0
  0
  1
  0
  16
  0
  0
  0
  0
  0
  0
EndShort
LangName: 1033 "" "" "Regular" "Handbook" "" "" "" "" "" "G. Paul Koning"
Encoding: UnicodeBmp
Compacted: 1
UnicodeInterp: none
NameList: AGL For New Fonts
DisplaySize: -48
AntiAlias: 1
FitToEm: 0
WidthSeparation: 100
WinInfo: 0 16 6
BeginPrivate: 0
EndPrivate

StartChar: period
Encoding: 46 46 1
Width: 197
Flags: W
LayerCount: 2
Fore
SplineSet
101 118 m 0,0,1
 113 118 113 118 123.5 113.5 c 128,-1,2
 134 109 134 109 142 101 c 128,-1,3
 150 93 150 93 154.5 82 c 128,-1,4
 159 71 159 71 159 60 c 0,5,6
 159 47 159 47 154.5 36 c 128,-1,7
 150 25 150 25 142 17.5 c 128,-1,8
 134 10 134 10 123 5 c 128,-1,9
 112 0 112 0 101 0 c 0,10,11
 88 0 88 0 77 5 c 128,-1,12
 66 10 66 10 58.5 17.5 c 128,-1,13
 51 25 51 25 46 36 c 128,-1,14
 41 47 41 47 41 60 c 0,15,16
 41 72 41 72 46 82.5 c 128,-1,17
 51 93 51 93 58.5 101 c 128,-1,18
 66 109 66 109 77 113.5 c 128,-1,19
 88 118 88 118 101 118 c 0,0,1
EndSplineSet
Validated: 1
EndChar

StartChar: a
Encoding: 97 97 2
Width: 637
Flags: W
LayerCount: 2
Fore
SplineSet
313 120 m 0,0,1
 344 120 344 120 372.5 132.5 c 128,-1,2
 401 145 401 145 421.5 166 c 128,-1,3
 442 187 442 187 454.5 214.5 c 128,-1,4
 467 242 467 242 467 274 c 0,5,6
 467 305 467 305 454.5 333.5 c 128,-1,7
 442 362 442 362 421.5 382.5 c 128,-1,8
 401 403 401 403 373 415.5 c 128,-1,9
 345 428 345 428 313 428 c 0,10,11
 281 428 281 428 253.5 415.5 c 128,-1,12
 226 403 226 403 205 382.5 c 128,-1,13
 184 362 184 362 171.5 334 c 128,-1,14
 159 306 159 306 159 274 c 0,15,16
 159 242 159 242 171.5 214.5 c 128,-1,17
 184 187 184 187 205 166 c 128,-1,18
 226 145 226 145 253.5 132.5 c 128,-1,19
 281 120 281 120 313 120 c 0,0,1
469 52 m 1,20,21
 452 40 452 40 433.5 30.5 c 128,-1,22
 415 21 415 21 394.5 14 c 128,-1,23
 374 7 374 7 353.5 3.5 c 128,-1,24
 333 0 333 0 313 0 c 0,25,26
 285 0 285 0 258 6 c 128,-1,27
 231 12 231 12 207 22 c 128,-1,28
 183 32 183 32 161 47 c 128,-1,29
 139 62 139 62 120.5 81 c 128,-1,30
 102 100 102 100 86.5 122 c 128,-1,31
 71 144 71 144 61 168.5 c 128,-1,32
 51 193 51 193 45 219.5 c 128,-1,33
 39 246 39 246 39 274 c 0,34,35
 39 301 39 301 45 328 c 128,-1,36
 51 355 51 355 61 379.5 c 128,-1,37
 71 404 71 404 86.5 426 c 128,-1,38
 102 448 102 448 120.5 467 c 128,-1,39
 139 486 139 486 161 501 c 128,-1,40
 183 516 183 516 207 526.5 c 128,-1,41
 231 537 231 537 258 542.5 c 128,-1,42
 285 548 285 548 313 548 c 0,43,44
 333 548 333 548 353.5 544.5 c 128,-1,45
 374 541 374 541 394.5 534 c 128,-1,46
 415 527 415 527 433.5 518 c 128,-1,47
 452 509 452 509 469 497 c 1,48,-1
 469 544 l 1,49,-1
 587 544 l 1,50,-1
 587 0 l 1,51,-1
 469 0 l 1,52,-1
 469 52 l 1,20,21
EndSplineSet
Validated: 1
EndChar

StartChar: b
Encoding: 98 98 3
Width: 640
Flags: W
LayerCount: 2
Fore
SplineSet
322 120 m 0,0,1
 354 120 354 120 382 132.5 c 128,-1,2
 410 145 410 145 431 166 c 128,-1,3
 452 187 452 187 464.5 214.5 c 128,-1,4
 477 242 477 242 477 274 c 0,5,6
 477 305 477 305 464.5 333.5 c 128,-1,7
 452 362 452 362 431 382.5 c 128,-1,8
 410 403 410 403 382 415.5 c 128,-1,9
 354 428 354 428 322 428 c 0,10,11
 291 428 291 428 262.5 415.5 c 128,-1,12
 234 403 234 403 213 382.5 c 128,-1,13
 192 362 192 362 180.5 334 c 128,-1,14
 169 306 169 306 169 274 c 0,15,16
 169 242 169 242 180.5 214.5 c 128,-1,17
 192 187 192 187 213 166 c 128,-1,18
 234 145 234 145 262.5 132.5 c 128,-1,19
 291 120 291 120 322 120 c 0,0,1
166 52 m 1,20,-1
 166 2 l 1,21,-1
 48 2 l 1,22,-1
 46 742 l 1,23,-1
 166 744 l 1,24,-1
 166 497 l 1,25,26
 183 509 183 509 202 518 c 128,-1,27
 221 527 221 527 241 534 c 128,-1,28
 261 541 261 541 282 544.5 c 128,-1,29
 303 548 303 548 322 548 c 0,30,31
 350 548 350 548 376.5 542.5 c 128,-1,32
 403 537 403 537 428 526.5 c 128,-1,33
 453 516 453 516 475 501 c 128,-1,34
 497 486 497 486 515.5 467 c 128,-1,35
 534 448 534 448 549 426 c 128,-1,36
 564 404 564 404 574.5 379.5 c 128,-1,37
 585 355 585 355 591 328.5 c 128,-1,38
 597 302 597 302 597 274 c 0,39,40
 597 246 597 246 591 219.5 c 128,-1,41
 585 193 585 193 574.5 168.5 c 128,-1,42
 564 144 564 144 549 122 c 128,-1,43
 534 100 534 100 515.5 81 c 128,-1,44
 497 62 497 62 475 47 c 128,-1,45
 453 32 453 32 428 22 c 128,-1,46
 403 12 403 12 377 6 c 128,-1,47
 351 0 351 0 322 0 c 0,48,49
 302 0 302 0 281.5 3.5 c 128,-1,50
 261 7 261 7 241 14 c 128,-1,51
 221 21 221 21 202 30.5 c 128,-1,52
 183 40 183 40 166 52 c 1,20,-1
EndSplineSet
Validated: 1
EndChar

StartChar: c
Encoding: 99 99 4
Width: 586
Flags: W
LayerCount: 2
Fore
SplineSet
550 411 m 1,0,-1
 446 351 l 1,1,2
 435 369 435 369 421 383 c 128,-1,3
 407 397 407 397 390 407 c 128,-1,4
 373 417 373 417 353 422 c 0,5,6
 332 428 332 428 312 428 c 0,7,8
 281 428 281 428 253 416 c 128,-1,9
 225 404 225 404 204 383 c 128,-1,10
 183 362 183 362 170.5 334 c 128,-1,11
 158 306 158 306 158 273 c 0,12,13
 158 242 158 242 170.5 214 c 128,-1,14
 183 186 183 186 204 165 c 128,-1,15
 225 144 225 144 253 132 c 0,16,17
 280 119 280 119 312 119 c 0,18,19
 333 119 333 119 353 124.5 c 128,-1,20
 373 130 373 130 390 140 c 128,-1,21
 407 150 407 150 422 165 c 128,-1,22
 437 180 437 180 446 197 c 1,23,-1
 549 137 l 1,24,25
 531 106 531 106 505.5 80.5 c 128,-1,26
 480 55 480 55 449.5 37.5 c 128,-1,27
 419 20 419 20 384.5 10 c 128,-1,28
 350 0 350 0 312 0 c 0,29,30
 284 0 284 0 257.5 5.5 c 128,-1,31
 231 11 231 11 206.5 21.5 c 128,-1,32
 182 32 182 32 160 47 c 128,-1,33
 138 62 138 62 119.5 80.5 c 128,-1,34
 101 99 101 99 86 121 c 128,-1,35
 71 143 71 143 60.5 167.5 c 128,-1,36
 50 192 50 192 44.5 218.5 c 128,-1,37
 39 245 39 245 39 273 c 256,38,39
 39 301 39 301 44.5 328 c 128,-1,40
 50 355 50 355 60.5 380 c 128,-1,41
 71 405 71 405 86 426.5 c 128,-1,42
 101 448 101 448 119.5 467 c 128,-1,43
 138 486 138 486 160 501 c 128,-1,44
 182 516 182 516 206.5 526 c 128,-1,45
 231 536 231 536 257.5 542 c 128,-1,46
 284 548 284 548 312 548 c 0,47,48
 349 548 349 548 384 538 c 128,-1,49
 419 528 419 528 449.5 510.5 c 128,-1,50
 480 493 480 493 506 467.5 c 128,-1,51
 532 442 532 442 550 411 c 1,0,-1
EndSplineSet
Validated: 1
EndChar

StartChar: d
Encoding: 100 100 5
Width: 637
Flags: W
LayerCount: 2
Fore
SplineSet
313 120 m 0,0,1
 344 120 344 120 372.5 132.5 c 128,-1,2
 401 145 401 145 421.5 166 c 128,-1,3
 442 187 442 187 454.5 214.5 c 128,-1,4
 467 242 467 242 467 274 c 0,5,6
 467 305 467 305 454.5 333.5 c 128,-1,7
 442 362 442 362 421.5 382.5 c 128,-1,8
 401 403 401 403 373 415.5 c 128,-1,9
 345 428 345 428 313 428 c 0,10,11
 281 428 281 428 253.5 415.5 c 128,-1,12
 226 403 226 403 205 382.5 c 128,-1,13
 184 362 184 362 171.5 334 c 128,-1,14
 159 306 159 306 159 274 c 0,15,16
 159 242 159 242 171.5 214.5 c 128,-1,17
 184 187 184 187 205 166 c 128,-1,18
 226 145 226 145 253.5 132.5 c 128,-1,19
 281 120 281 120 313 120 c 0,0,1
469 52 m 1,20,21
 452 40 452 40 433.5 30.5 c 128,-1,22
 415 21 415 21 394.5 14 c 128,-1,23
 374 7 374 7 353.5 3.5 c 128,-1,24
 333 0 333 0 313 0 c 0,25,26
 285 0 285 0 258 6 c 128,-1,27
 231 12 231 12 207 22 c 128,-1,28
 183 32 183 32 161 47 c 128,-1,29
 139 62 139 62 120.5 81 c 128,-1,30
 102 100 102 100 86.5 122 c 128,-1,31
 71 144 71 144 61 168.5 c 128,-1,32
 51 193 51 193 45 219.5 c 128,-1,33
 39 246 39 246 39 274 c 0,34,35
 39 301 39 301 45 328 c 128,-1,36
 51 355 51 355 61 379.5 c 128,-1,37
 71 404 71 404 86.5 426 c 128,-1,38
 102 448 102 448 120.5 467 c 128,-1,39
 139 486 139 486 161 501 c 128,-1,40
 183 516 183 516 207 526.5 c 128,-1,41
 231 537 231 537 258 542.5 c 128,-1,42
 285 548 285 548 313 548 c 0,43,44
 333 548 333 548 353.5 544.5 c 128,-1,45
 374 541 374 541 394.5 534 c 128,-1,46
 415 527 415 527 433.5 518 c 128,-1,47
 452 509 452 509 469 497 c 1,48,-1
 469 744 l 1,49,-1
 587 744 l 1,50,-1
 587 2 l 1,51,-1
 469 2 l 1,52,-1
 469 52 l 1,20,21
EndSplineSet
Validated: 1
EndChar

StartChar: e
Encoding: 101 101 6
Width: 630
Flags: W
LayerCount: 2
Fore
SplineSet
453 332 m 1,0,1
 445 353 445 353 430.5 370.5 c 128,-1,2
 416 388 416 388 397.5 400.5 c 128,-1,3
 379 413 379 413 357.5 420.5 c 128,-1,4
 336 428 336 428 313 428 c 0,5,6
 290 428 290 428 268 421 c 128,-1,7
 246 414 246 414 228 401.5 c 128,-1,8
 210 389 210 389 196 371.5 c 128,-1,9
 182 354 182 354 173 332 c 1,10,-1
 453 332 l 1,0,1
175 214 m 1,11,12
 183 193 183 193 197 175.5 c 128,-1,13
 211 158 211 158 229 146 c 128,-1,14
 247 134 247 134 269 127 c 128,-1,15
 291 120 291 120 313 120 c 0,16,17
 332 120 332 120 351 125.5 c 128,-1,18
 370 131 370 131 387 141 c 128,-1,19
 404 151 404 151 418.5 165.5 c 128,-1,20
 433 180 433 180 442 198 c 1,21,-1
 552 138 l 1,22,23
 532 108 532 108 505.5 82.5 c 128,-1,24
 479 57 479 57 448.5 38.5 c 128,-1,25
 418 20 418 20 383.5 10 c 128,-1,26
 349 0 349 0 313 0 c 0,27,28
 285 0 285 0 258 6 c 128,-1,29
 231 12 231 12 207 22 c 128,-1,30
 183 32 183 32 161 47 c 128,-1,31
 139 62 139 62 120.5 81 c 128,-1,32
 102 100 102 100 86.5 122 c 128,-1,33
 71 144 71 144 61 168 c 128,-1,34
 51 192 51 192 45 219 c 128,-1,35
 39 246 39 246 39 273 c 0,36,37
 39 301 39 301 45 328 c 128,-1,38
 51 355 51 355 61 379.5 c 128,-1,39
 71 404 71 404 86.5 426 c 128,-1,40
 102 448 102 448 120.5 466.5 c 128,-1,41
 139 485 139 485 161 500.5 c 128,-1,42
 183 516 183 516 207 526 c 128,-1,43
 231 536 231 536 258 542 c 128,-1,44
 285 548 285 548 313 548 c 0,45,46
 340 548 340 548 367.5 542 c 128,-1,47
 395 536 395 536 419 526 c 128,-1,48
 443 516 443 516 465 500.5 c 128,-1,49
 487 485 487 485 505.5 466.5 c 128,-1,50
 524 448 524 448 539.5 426 c 128,-1,51
 555 404 555 404 565.5 379.5 c 128,-1,52
 576 355 576 355 581.5 328.5 c 128,-1,53
 587 302 587 302 587 273 c 0,54,55
 587 258 587 258 584 243 c 128,-1,56
 581 228 581 228 578 214 c 1,57,-1
 175 214 l 1,11,12
EndSplineSet
Validated: 1
EndChar

StartChar: g
Encoding: 103 103 7
Width: 637
Flags: W
LayerCount: 2
Fore
SplineSet
159 273 m 0,0,1
 159 242 159 242 171.5 214.5 c 128,-1,2
 184 187 184 187 205 166 c 128,-1,3
 226 145 226 145 253.5 132.5 c 128,-1,4
 281 120 281 120 313 120 c 0,5,6
 344 120 344 120 372.5 132.5 c 128,-1,7
 401 145 401 145 422 166 c 0,8,9
 444 188 444 188 456 214 c 128,-1,10
 468 240 468 240 468 269 c 0,11,12
 468 271 468 271 468 273 c 0,13,14
 468 305 468 305 455.5 333 c 128,-1,15
 443 361 443 361 422 382 c 128,-1,16
 401 403 401 403 373 415.5 c 128,-1,17
 345 428 345 428 313 428 c 128,-1,18
 281 428 281 428 253.5 415.5 c 128,-1,19
 226 403 226 403 205 382 c 128,-1,20
 184 361 184 361 171.5 333 c 128,-1,21
 159 305 159 305 159 273 c 0,0,1
39 274 m 256,22,23
 39 302 39 302 45 328.5 c 128,-1,24
 51 355 51 355 61 379.5 c 128,-1,25
 71 404 71 404 86.5 426 c 128,-1,26
 102 448 102 448 120.5 467 c 128,-1,27
 139 486 139 486 161 501 c 128,-1,28
 183 516 183 516 207 526.5 c 128,-1,29
 231 537 231 537 258 542.5 c 128,-1,30
 285 548 285 548 313 548 c 0,31,32
 333 548 333 548 353.5 544.5 c 128,-1,33
 374 541 374 541 394.5 534 c 128,-1,34
 415 527 415 527 433.5 518 c 128,-1,35
 452 509 452 509 469 497 c 1,36,-1
 469 544 l 1,37,-1
 587 544 l 1,38,-1
 587 72 l 2,39,40
 587 44 587 44 581.5 18 c 128,-1,41
 576 -8 576 -8 566 -32.5 c 128,-1,42
 556 -57 556 -57 540.5 -79 c 128,-1,43
 525 -101 525 -101 506.5 -119.5 c 128,-1,44
 488 -138 488 -138 466 -153 c 128,-1,45
 444 -168 444 -168 420 -178 c 128,-1,46
 396 -188 396 -188 369 -194 c 128,-1,47
 342 -200 342 -200 313 -200 c 0,48,49
 267 -200 267 -200 225 -185 c 128,-1,50
 183 -170 183 -170 147.5 -143.5 c 128,-1,51
 112 -117 112 -117 87 -80 c 128,-1,52
 62 -43 62 -43 50 0 c 1,53,-1
 177 0 l 1,54,55
 188 -18 188 -18 202 -33 c 128,-1,56
 216 -48 216 -48 234 -58.5 c 128,-1,57
 252 -69 252 -69 272 -75 c 128,-1,58
 292 -81 292 -81 313 -81 c 0,59,60
 341 -81 341 -81 367.5 -71 c 128,-1,61
 394 -61 394 -61 414.5 -42.5 c 128,-1,62
 435 -24 435 -24 448.5 -0.5 c 128,-1,63
 462 23 462 23 466 51 c 1,64,65
 448 40 448 40 430 30.5 c 128,-1,66
 412 21 412 21 392.5 14.5 c 128,-1,67
 373 8 373 8 353 4 c 128,-1,68
 333 0 333 0 313 0 c 0,69,70
 285 0 285 0 258.5 6 c 128,-1,71
 232 12 232 12 207.5 22 c 128,-1,72
 183 32 183 32 161 47 c 128,-1,73
 139 62 139 62 120.5 81 c 128,-1,74
 102 100 102 100 86.5 122 c 128,-1,75
 71 144 71 144 61 168.5 c 128,-1,76
 51 193 51 193 45 219.5 c 128,-1,77
 39 246 39 246 39 274 c 256,22,23
EndSplineSet
Validated: 1
EndChar

StartChar: h
Encoding: 104 104 8
Width: 641
Flags: W
LayerCount: 2
Fore
SplineSet
594 274 m 2,0,-1
 594 0 l 1,1,-1
 475 0 l 1,2,-1
 475 276 l 2,3,4
 474 307 474 307 461.5 335 c 128,-1,5
 449 363 449 363 428.5 383.5 c 128,-1,6
 408 404 408 404 380 416 c 128,-1,7
 352 428 352 428 320 428 c 0,8,9
 304 428 304 428 289 424.5 c 128,-1,10
 274 421 274 421 260 414 c 128,-1,11
 246 407 246 407 233.5 398.5 c 128,-1,12
 221 390 221 390 210 378.5 c 128,-1,13
 199 367 199 367 191 355 c 128,-1,14
 183 343 183 343 177 329 c 128,-1,15
 171 315 171 315 167.5 301.5 c 128,-1,16
 164 288 164 288 164 274 c 2,17,-1
 164 2 l 1,18,-1
 46 2 l 1,19,-1
 46 744 l 1,20,-1
 164 744 l 1,21,-1
 164 497 l 1,22,23
 181 509 181 509 200 518 c 128,-1,24
 219 527 219 527 239 534 c 128,-1,25
 259 541 259 541 279.5 544.5 c 128,-1,26
 300 548 300 548 320 548 c 0,27,28
 348 548 348 548 374.5 542.5 c 128,-1,29
 401 537 401 537 425.5 526.5 c 128,-1,30
 450 516 450 516 472 500.5 c 128,-1,31
 494 485 494 485 513 466.5 c 128,-1,32
 532 448 532 448 547 426 c 128,-1,33
 562 404 562 404 572.5 379.5 c 128,-1,34
 583 355 583 355 588.5 328 c 128,-1,35
 594 301 594 301 594 274 c 2,0,-1
EndSplineSet
Validated: 1
EndChar

StartChar: i
Encoding: 105 105 9
Width: 214
Flags: W
LayerCount: 2
Fore
SplineSet
105 744 m 0,0,1
 117 744 117 744 128 739.5 c 128,-1,2
 139 735 139 735 147 727 c 128,-1,3
 155 719 155 719 159.5 708 c 128,-1,4
 164 697 164 697 164 686 c 0,5,6
 164 673 164 673 159.5 662 c 128,-1,7
 155 651 155 651 147 643 c 128,-1,8
 139 635 139 635 128 630.5 c 128,-1,9
 117 626 117 626 105 626 c 0,10,11
 92 626 92 626 81.5 630.5 c 128,-1,12
 71 635 71 635 63.5 643 c 128,-1,13
 56 651 56 651 51 662 c 128,-1,14
 46 673 46 673 46 686 c 0,15,16
 46 698 46 698 51 708.5 c 128,-1,17
 56 719 56 719 63.5 727 c 128,-1,18
 71 735 71 735 81.5 739.5 c 128,-1,19
 92 744 92 744 105 744 c 0,0,1
46 549 m 1,20,-1
 164 549 l 1,21,-1
 164 0 l 1,22,-1
 46 0 l 1,23,-1
 46 549 l 1,20,-1
EndSplineSet
Validated: 1
EndChar

StartChar: k
Encoding: 107 107 10
Width: 539
Flags: W
LayerCount: 2
Fore
SplineSet
499 0 m 1,0,1
 494 0 l 0,2,3
 488 0 488 0 480 0 c 128,-1,4
 472 0 472 0 460.5 0 c 128,-1,5
 449 0 449 0 438 0 c 128,-1,6
 427 0 427 0 416 0 c 128,-1,7
 405 0 405 0 396.5 0 c 128,-1,8
 388 0 388 0 383 0 c 0,9,-1
 378 0 l 1,10,11
 378 22 378 22 373.5 42.5 c 128,-1,12
 369 63 369 63 361 83 c 128,-1,13
 353 103 353 103 341 120 c 128,-1,14
 329 137 329 137 315 151 c 128,-1,15
 301 165 301 165 284 176.5 c 128,-1,16
 267 188 267 188 247.5 196.5 c 128,-1,17
 228 205 228 205 207.5 209.5 c 128,-1,18
 187 214 187 214 164 214 c 1,19,-1
 164 0 l 1,20,-1
 46 0 l 1,21,-1
 46 745 l 1,22,-1
 164 745 l 1,23,-1
 164 334 l 1,24,25
 186 334 186 334 207 338.5 c 128,-1,26
 228 343 228 343 247 351 c 128,-1,27
 266 359 266 359 283 370.5 c 128,-1,28
 300 382 300 382 314.5 396.5 c 128,-1,29
 329 411 329 411 340.5 428 c 128,-1,30
 352 445 352 445 360 464 c 128,-1,31
 368 483 368 483 372.5 504 c 128,-1,32
 377 525 377 525 377 547 c 1,33,-1
 497 547 l 1,34,35
 497 507 497 507 487.5 468 c 128,-1,36
 478 429 478 429 459.5 393.5 c 128,-1,37
 441 358 441 358 415.5 328 c 128,-1,38
 390 298 390 298 356 274 c 1,39,40
 389 252 389 252 415.5 221 c 128,-1,41
 442 190 442 190 460.5 154.5 c 128,-1,42
 479 119 479 119 489 80 c 128,-1,43
 499 41 499 41 499 0 c 1,0,1
EndSplineSet
Validated: 1
EndChar

StartChar: l
Encoding: 108 108 11
Width: 214
Flags: W
LayerCount: 2
Fore
SplineSet
46 744 m 1,0,-1
 164 744 l 1,1,-1
 164 0 l 1,2,-1
 46 0 l 1,3,-1
 46 744 l 1,0,-1
EndSplineSet
Validated: 1
EndChar

StartChar: m
Encoding: 109 109 12
Width: 1070
Flags: W
LayerCount: 2
Fore
SplineSet
1022 274 m 2,0,-1
 1022 0 l 1,1,-1
 902 0 l 1,2,-1
 902 276 l 2,3,4
 902 307 902 307 890 335 c 128,-1,5
 878 363 878 363 857 383.5 c 128,-1,6
 836 404 836 404 808 416 c 128,-1,7
 780 428 780 428 748 428 c 0,8,9
 732 428 732 428 717 424.5 c 128,-1,10
 702 421 702 421 688 414.5 c 128,-1,11
 674 408 674 408 661.5 399 c 128,-1,12
 649 390 649 390 638.5 379 c 128,-1,13
 628 368 628 368 619 355.5 c 128,-1,14
 610 343 610 343 604.5 329 c 128,-1,15
 599 315 599 315 596 301.5 c 128,-1,16
 593 288 593 288 593 274 c 2,17,-1
 593 2 l 1,18,-1
 475 3 l 1,19,-1
 475 279 l 2,20,21
 474 311 474 311 461.5 338.5 c 128,-1,22
 449 366 449 366 428.5 386.5 c 128,-1,23
 408 407 408 407 380 419.5 c 128,-1,24
 352 432 352 432 320 432 c 0,25,26
 304 432 304 432 289 428 c 128,-1,27
 274 424 274 424 260 417.5 c 128,-1,28
 246 411 246 411 233.5 402 c 128,-1,29
 221 393 221 393 210 382 c 128,-1,30
 199 371 199 371 191 358.5 c 128,-1,31
 183 346 183 346 177 332.5 c 128,-1,32
 171 319 171 319 167.5 305 c 128,-1,33
 164 291 164 291 164 277 c 2,34,-1
 164 6 l 1,35,-1
 46 6 l 1,36,-1
 46 547 l 1,37,-1
 164 547 l 1,38,-1
 164 500 l 1,39,40
 181 512 181 512 200 521.5 c 128,-1,41
 219 531 219 531 239 537.5 c 128,-1,42
 259 544 259 544 279.5 548 c 128,-1,43
 300 552 300 552 320 552 c 0,44,45
 352 552 352 552 383 544 c 128,-1,46
 414 536 414 536 441.5 522.5 c 128,-1,47
 469 509 469 509 492.5 489.5 c 128,-1,48
 516 470 516 470 534 445 c 1,49,50
 554 469 554 469 578.5 488.5 c 128,-1,51
 603 508 603 508 630 521 c 128,-1,52
 657 534 657 534 687.5 541 c 128,-1,53
 718 548 718 548 748 548 c 0,54,55
 776 548 776 548 803 542.5 c 128,-1,56
 830 537 830 537 855 527 c 128,-1,57
 880 517 880 517 902 501.5 c 128,-1,58
 924 486 924 486 942.5 467.5 c 128,-1,59
 961 449 961 449 975.5 427 c 128,-1,60
 990 405 990 405 1000.5 380.5 c 128,-1,61
 1011 356 1011 356 1016.5 329 c 128,-1,62
 1022 302 1022 302 1022 274 c 2,0,-1
EndSplineSet
Validated: 1
EndChar

StartChar: n
Encoding: 110 110 13
Width: 641
Flags: W
LayerCount: 2
Fore
SplineSet
594 274 m 2,0,-1
 594 0 l 1,1,-1
 475 0 l 1,2,-1
 475 276 l 2,3,4
 474 307 474 307 461.5 335 c 128,-1,5
 449 363 449 363 428.5 383.5 c 128,-1,6
 408 404 408 404 380 416 c 128,-1,7
 352 428 352 428 320 428 c 0,8,9
 304 428 304 428 289 424.5 c 128,-1,10
 274 421 274 421 260 414 c 128,-1,11
 246 407 246 407 233.5 398.5 c 128,-1,12
 221 390 221 390 210 378.5 c 128,-1,13
 199 367 199 367 191 355 c 128,-1,14
 183 343 183 343 177 329 c 128,-1,15
 171 315 171 315 167.5 301.5 c 128,-1,16
 164 288 164 288 164 274 c 2,17,-1
 164 2 l 1,18,-1
 46 2 l 1,19,-1
 46 544 l 1,20,-1
 164 544 l 1,21,-1
 164 497 l 1,22,23
 181 509 181 509 200 518 c 128,-1,24
 219 527 219 527 239 534 c 128,-1,25
 259 541 259 541 279.5 544.5 c 128,-1,26
 300 548 300 548 320 548 c 0,27,28
 348 548 348 548 374.5 542.5 c 128,-1,29
 401 537 401 537 425.5 526.5 c 128,-1,30
 450 516 450 516 472 500.5 c 128,-1,31
 494 485 494 485 513 466.5 c 128,-1,32
 532 448 532 448 547 426 c 128,-1,33
 562 404 562 404 572.5 379.5 c 128,-1,34
 583 355 583 355 588.5 328 c 128,-1,35
 594 301 594 301 594 274 c 2,0,-1
EndSplineSet
Validated: 1
EndChar

StartChar: o
Encoding: 111 111 14
Width: 631
Flags: W
LayerCount: 2
Fore
SplineSet
312 0 m 256,0,1
 284 0 284 0 257.5 5.5 c 128,-1,2
 231 11 231 11 206.5 21.5 c 128,-1,3
 182 32 182 32 160 47 c 128,-1,4
 138 62 138 62 119.5 80.5 c 128,-1,5
 101 99 101 99 86 121 c 128,-1,6
 71 143 71 143 60.5 167.5 c 128,-1,7
 50 192 50 192 44.5 218.5 c 128,-1,8
 39 245 39 245 39 273 c 256,9,10
 39 301 39 301 44.5 328 c 128,-1,11
 50 355 50 355 60.5 380 c 128,-1,12
 71 405 71 405 86 426.5 c 128,-1,13
 101 448 101 448 119.5 467 c 128,-1,14
 138 486 138 486 160 501 c 128,-1,15
 182 516 182 516 206.5 526 c 128,-1,16
 231 536 231 536 257.5 542 c 128,-1,17
 284 548 284 548 312 548 c 256,18,19
 340 548 340 548 367.5 542 c 128,-1,20
 395 536 395 536 419.5 526 c 128,-1,21
 444 516 444 516 465.5 501 c 128,-1,22
 487 486 487 486 506 467 c 128,-1,23
 525 448 525 448 540 426.5 c 128,-1,24
 555 405 555 405 565 380 c 128,-1,25
 575 355 575 355 581 328.5 c 128,-1,26
 587 302 587 302 587 273 c 256,27,28
 587 245 587 245 581 218.5 c 128,-1,29
 575 192 575 192 565 167.5 c 128,-1,30
 555 143 555 143 540 121 c 128,-1,31
 525 99 525 99 506 80.5 c 128,-1,32
 487 62 487 62 465.5 47 c 128,-1,33
 444 32 444 32 419.5 21.5 c 128,-1,34
 395 11 395 11 367.5 5.5 c 128,-1,35
 340 0 340 0 312 0 c 256,0,1
312 119 m 0,36,37
 344 119 344 119 372.5 131.5 c 128,-1,38
 401 144 401 144 422 165 c 128,-1,39
 443 186 443 186 455.5 214 c 128,-1,40
 468 242 468 242 468 273 c 0,41,42
 468 305 468 305 455.5 333.5 c 128,-1,43
 443 362 443 362 422 383 c 128,-1,44
 401 404 401 404 373 416 c 0,45,46
 344 429 344 429 312 429 c 0,47,48
 281 429 281 429 253 416.5 c 128,-1,49
 225 404 225 404 204 383 c 128,-1,50
 183 362 183 362 170.5 334 c 128,-1,51
 158 306 158 306 158 273 c 0,52,53
 158 242 158 242 170.5 214 c 128,-1,54
 183 186 183 186 204 165 c 128,-1,55
 225 144 225 144 253 131.5 c 128,-1,56
 281 119 281 119 312 119 c 0,36,37
EndSplineSet
Validated: 1
EndChar

StartChar: p
Encoding: 112 112 15
Width: 641
Flags: W
LayerCount: 2
Fore
SplineSet
322 428 m 0,0,1
 291 428 291 428 262.5 415.5 c 128,-1,2
 234 403 234 403 213 382 c 128,-1,3
 192 361 192 361 180.5 333.5 c 128,-1,4
 169 306 169 306 169 274 c 0,5,6
 169 242 169 242 180.5 214.5 c 128,-1,7
 192 187 192 187 213 166 c 128,-1,8
 234 145 234 145 262.5 132.5 c 128,-1,9
 291 120 291 120 322 120 c 0,10,11
 354 120 354 120 382 132.5 c 128,-1,12
 410 145 410 145 431 166 c 128,-1,13
 452 187 452 187 464.5 214.5 c 128,-1,14
 477 242 477 242 477 274 c 0,15,16
 477 305 477 305 464.5 333 c 128,-1,17
 452 361 452 361 431 382 c 128,-1,18
 410 403 410 403 382 415.5 c 128,-1,19
 354 428 354 428 322 428 c 0,0,1
166 497 m 1,20,21
 183 509 183 509 202 518 c 128,-1,22
 221 527 221 527 241 534 c 128,-1,23
 261 541 261 541 282 544.5 c 128,-1,24
 303 548 303 548 322 548 c 0,25,26
 350 548 350 548 376.5 542.5 c 128,-1,27
 403 537 403 537 428 526.5 c 128,-1,28
 453 516 453 516 475 500.5 c 128,-1,29
 497 485 497 485 515.5 466.5 c 128,-1,30
 534 448 534 448 549 426 c 128,-1,31
 564 404 564 404 574.5 379.5 c 128,-1,32
 585 355 585 355 591 328.5 c 128,-1,33
 597 302 597 302 597 274 c 0,34,35
 597 246 597 246 591 219 c 128,-1,36
 585 192 585 192 574.5 168 c 128,-1,37
 564 144 564 144 549 122 c 128,-1,38
 534 100 534 100 515.5 81 c 128,-1,39
 497 62 497 62 475 47 c 128,-1,40
 453 32 453 32 428 21.5 c 128,-1,41
 403 11 403 11 377 5.5 c 128,-1,42
 351 0 351 0 322 0 c 0,43,44
 302 0 302 0 281.5 3.5 c 128,-1,45
 261 7 261 7 241 14 c 128,-1,46
 221 21 221 21 202 30 c 128,-1,47
 183 39 183 39 166 51 c 1,48,-1
 166 -195 l 1,49,-1
 46 -195 l 1,50,-1
 46 546 l 1,51,-1
 166 546 l 1,52,-1
 166 497 l 1,20,21
EndSplineSet
Validated: 1
EndChar

StartChar: q
Encoding: 113 113 16
Width: 641
Flags: W
LayerCount: 2
Fore
SplineSet
313 428 m 0,0,1
 281 428 281 428 253.5 415.5 c 128,-1,2
 226 403 226 403 205 382 c 128,-1,3
 184 361 184 361 171.5 333.5 c 128,-1,4
 159 306 159 306 159 274 c 0,5,6
 159 242 159 242 171.5 214.5 c 128,-1,7
 184 187 184 187 205 166 c 128,-1,8
 226 145 226 145 253.5 132.5 c 128,-1,9
 281 120 281 120 313 120 c 0,10,11
 344 120 344 120 372.5 132.5 c 128,-1,12
 401 145 401 145 421.5 166 c 128,-1,13
 442 187 442 187 454.5 214.5 c 128,-1,14
 467 242 467 242 467 274 c 0,15,16
 467 305 467 305 454.5 333 c 128,-1,17
 442 361 442 361 421.5 382 c 128,-1,18
 401 403 401 403 372.5 415.5 c 128,-1,19
 344 428 344 428 313 428 c 0,0,1
469 497 m 1,20,-1
 469 546 l 1,21,-1
 590 546 l 1,22,-1
 590 -195 l 1,23,-1
 469 -195 l 1,24,-1
 469 51 l 1,25,26
 452 39 452 39 433.5 30 c 128,-1,27
 415 21 415 21 394.5 14 c 128,-1,28
 374 7 374 7 353.5 3.5 c 128,-1,29
 333 0 333 0 313 0 c 0,30,31
 285 0 285 0 258 5.5 c 128,-1,32
 231 11 231 11 207 21.5 c 128,-1,33
 183 32 183 32 161 47 c 128,-1,34
 139 62 139 62 120.5 81 c 128,-1,35
 102 100 102 100 86.5 122 c 128,-1,36
 71 144 71 144 61 168 c 128,-1,37
 51 192 51 192 45 219 c 128,-1,38
 39 246 39 246 39 274 c 0,39,40
 39 301 39 301 45 328 c 128,-1,41
 51 355 51 355 61 379.5 c 128,-1,42
 71 404 71 404 86.5 426 c 128,-1,43
 102 448 102 448 120.5 466.5 c 128,-1,44
 139 485 139 485 161 500.5 c 128,-1,45
 183 516 183 516 207 526.5 c 128,-1,46
 231 537 231 537 258 542.5 c 128,-1,47
 285 548 285 548 313 548 c 0,48,49
 333 548 333 548 353.5 544.5 c 128,-1,50
 374 541 374 541 394.5 534 c 128,-1,51
 415 527 415 527 433.5 518 c 128,-1,52
 452 509 452 509 469 497 c 1,20,-1
EndSplineSet
Validated: 1
EndChar

StartChar: r
Encoding: 114 114 17
Width: 511
Flags: W
LayerCount: 2
Fore
SplineSet
407 399 m 1,0,1
 388 411 388 411 366.5 418.5 c 128,-1,2
 345 426 345 426 320 426 c 0,3,4
 304 426 304 426 289 422 c 128,-1,5
 274 418 274 418 260 411.5 c 128,-1,6
 246 405 246 405 233.5 396.5 c 128,-1,7
 221 388 221 388 210 376.5 c 128,-1,8
 199 365 199 365 191 352.5 c 128,-1,9
 183 340 183 340 177 326.5 c 128,-1,10
 171 313 171 313 167.5 299.5 c 128,-1,11
 164 286 164 286 164 271 c 2,12,-1
 164 0 l 1,13,-1
 46 0 l 1,14,-1
 46 541 l 1,15,-1
 164 541 l 1,16,-1
 164 495 l 1,17,18
 181 507 181 507 200 516 c 128,-1,19
 219 525 219 525 239 532 c 128,-1,20
 259 539 259 539 279.5 542.5 c 128,-1,21
 300 546 300 546 320 546 c 0,22,23
 363 546 363 546 402.5 533 c 128,-1,24
 442 520 442 520 476 496 c 1,25,-1
 407 399 l 1,0,1
EndSplineSet
Validated: 1
EndChar

StartChar: t
Encoding: 116 116 18
Width: 506
Flags: W
LayerCount: 2
Fore
SplineSet
162 275 m 2,0,1
 163 244 163 244 175.5 216 c 128,-1,2
 188 188 188 188 208.5 166.5 c 128,-1,3
 229 145 229 145 257.5 132 c 128,-1,4
 286 119 286 119 317 119 c 0,5,6
 341 119 341 119 364 127 c 128,-1,7
 387 135 387 135 405 147 c 1,8,-1
 475 50 l 1,9,10
 441 27 441 27 400.5 13.5 c 128,-1,11
 360 0 360 0 317 0 c 0,12,13
 289 0 289 0 262.5 5.5 c 128,-1,14
 236 11 236 11 211.5 21.5 c 128,-1,15
 187 32 187 32 165 47 c 128,-1,16
 143 62 143 62 124 80.5 c 128,-1,17
 105 99 105 99 90.5 121 c 128,-1,18
 76 143 76 143 65.5 167.5 c 128,-1,19
 55 192 55 192 49.5 219 c 128,-1,20
 44 246 44 246 44 274 c 2,21,-1
 44 745 l 1,22,-1
 162 745 l 1,23,-1
 162 546 l 1,24,-1
 353 546 l 1,25,-1
 353 428 l 1,26,-1
 162 425 l 1,27,-1
 162 275 l 2,0,1
EndSplineSet
Validated: 1
EndChar

StartChar: u
Encoding: 117 117 19
Width: 643
Flags: W
LayerCount: 2
Fore
SplineSet
44 274 m 2,0,-1
 44 549 l 1,1,-1
 164 549 l 1,2,-1
 164 272 l 2,3,4
 164 240 164 240 176 212.5 c 128,-1,5
 188 185 188 185 209 164.5 c 128,-1,6
 230 144 230 144 258 132 c 128,-1,7
 286 120 286 120 318 120 c 0,8,9
 334 120 334 120 349 124 c 128,-1,10
 364 128 364 128 378.5 134.5 c 128,-1,11
 393 141 393 141 405 149.5 c 128,-1,12
 417 158 417 158 427.5 169.5 c 128,-1,13
 438 181 438 181 447 193.5 c 128,-1,14
 456 206 456 206 462 219 c 128,-1,15
 468 232 468 232 471.5 246.5 c 128,-1,16
 475 261 475 261 475 274 c 2,17,-1
 475 546 l 1,18,-1
 593 546 l 1,19,-1
 593 5 l 1,20,-1
 475 5 l 1,21,-1
 475 51 l 1,22,23
 457 39 457 39 438.5 30 c 128,-1,24
 420 21 420 21 399.5 14 c 128,-1,25
 379 7 379 7 358.5 3.5 c 128,-1,26
 338 0 338 0 318 0 c 0,27,28
 290 0 290 0 263 6 c 128,-1,29
 236 12 236 12 212 22 c 128,-1,30
 188 32 188 32 166 47 c 128,-1,31
 144 62 144 62 125 81 c 128,-1,32
 106 100 106 100 91 122 c 128,-1,33
 76 144 76 144 66 168.5 c 128,-1,34
 56 193 56 193 50 219.5 c 128,-1,35
 44 246 44 246 44 274 c 2,0,-1
EndSplineSet
Validated: 1
EndChar

StartChar: v
Encoding: 118 118 20
Width: 607
Flags: W
LayerCount: 2
Fore
SplineSet
361 0 m 1,0,-1
 243 0 l 1,1,-1
 31 547 l 1,2,-1
 158 547 l 1,3,-1
 303 158 l 1,4,-1
 447 547 l 1,5,-1
 574 547 l 1,6,-1
 361 0 l 1,0,-1
EndSplineSet
Validated: 1
EndChar

StartChar: x
Encoding: 120 120 21
Width: 699
Flags: W
LayerCount: 2
Fore
SplineSet
33 547 m 1,0,-1
 186 547 l 1,1,-1
 349 360 l 1,2,-1
 512 547 l 1,3,-1
 664 547 l 1,4,-1
 426 273 l 1,5,-1
 664 0 l 1,6,-1
 511 0 l 1,7,-1
 349 186 l 1,8,-1
 187 0 l 1,9,-1
 33 0 l 1,10,-1
 272 273 l 1,11,-1
 33 547 l 1,0,-1
EndSplineSet
Validated: 1
EndChar

StartChar: y
Encoding: 121 121 22
Width: 642
Flags: W
LayerCount: 2
Fore
SplineSet
592 546 m 1,0,-1
 592 72 l 2,1,2
 592 44 592 44 586.5 18 c 128,-1,3
 581 -8 581 -8 571 -32.5 c 128,-1,4
 561 -57 561 -57 545.5 -79 c 128,-1,5
 530 -101 530 -101 511.5 -119.5 c 128,-1,6
 493 -138 493 -138 471 -153 c 128,-1,7
 449 -168 449 -168 424.5 -178 c 128,-1,8
 400 -188 400 -188 373.5 -194 c 128,-1,9
 347 -200 347 -200 318 -200 c 0,10,11
 272 -200 272 -200 230 -185 c 128,-1,12
 188 -170 188 -170 152.5 -143.5 c 128,-1,13
 117 -117 117 -117 91.5 -80 c 128,-1,14
 66 -43 66 -43 55 0 c 1,15,-1
 182 0 l 1,16,17
 193 -18 193 -18 207 -33 c 128,-1,18
 221 -48 221 -48 239 -58.5 c 128,-1,19
 257 -69 257 -69 277 -75 c 128,-1,20
 297 -81 297 -81 318 -81 c 0,21,22
 346 -81 346 -81 372 -71 c 128,-1,23
 398 -61 398 -61 418.5 -42.5 c 128,-1,24
 439 -24 439 -24 453 -0.5 c 128,-1,25
 467 23 467 23 471 51 c 1,26,27
 453 40 453 40 435 30.5 c 128,-1,28
 417 21 417 21 397.5 14.5 c 128,-1,29
 378 8 378 8 358 4 c 128,-1,30
 338 0 338 0 318 0 c 0,31,32
 290 0 290 0 263.5 6 c 128,-1,33
 237 12 237 12 212.5 22 c 128,-1,34
 188 32 188 32 166 47 c 128,-1,35
 144 62 144 62 125 81 c 128,-1,36
 106 100 106 100 91 122 c 128,-1,37
 76 144 76 144 66 168.5 c 128,-1,38
 56 193 56 193 50 219.5 c 128,-1,39
 44 246 44 246 44 274 c 2,40,-1
 44 549 l 1,41,-1
 164 549 l 1,42,-1
 164 273 l 2,43,44
 164 242 164 242 176 214.5 c 128,-1,45
 188 187 188 187 209 166 c 128,-1,46
 230 145 230 145 258 132.5 c 128,-1,47
 286 120 286 120 318 120 c 0,48,49
 349 120 349 120 377.5 132.5 c 128,-1,50
 406 145 406 145 427 166 c 128,-1,51
 448 187 448 187 461 214.5 c 128,-1,52
 474 242 474 242 474 274 c 2,53,-1
 474 546 l 1,54,-1
 592 546 l 1,0,-1
EndSplineSet
Validated: 1
EndChar

StartChar: z
Encoding: 122 122 23
Width: 632
Flags: W
LayerCount: 2
Fore
SplineSet
222 118 m 1,0,-1
 587 118 l 1,1,-1
 587 0 l 1,2,-1
 43 0 l 1,3,-1
 43 118 l 1,4,-1
 401 430 l 1,5,-1
 43 430 l 1,6,-1
 43 548 l 1,7,-1
 587 548 l 1,8,-1
 587 430 l 1,9,-1
 222 118 l 1,0,-1
EndSplineSet
Validated: 1
EndChar

StartChar: R
Encoding: 82 82 24
Width: 593
Flags: W
LayerCount: 2
Fore
SplineSet
454 349 m 1,0,1
 444 367 444 367 430 381 c 128,-1,2
 416 395 416 395 398.5 405 c 128,-1,3
 381 415 381 415 361.5 420.5 c 128,-1,4
 342 426 342 426 320 426 c 0,5,6
 304 426 304 426 289 422 c 128,-1,7
 274 418 274 418 260 411.5 c 128,-1,8
 246 405 246 405 233.5 396.5 c 128,-1,9
 221 388 221 388 210 376.5 c 128,-1,10
 199 365 199 365 191 352.5 c 128,-1,11
 183 340 183 340 177 326.5 c 128,-1,12
 171 313 171 313 167.5 299.5 c 128,-1,13
 164 286 164 286 164 271 c 2,14,-1
 164 0 l 1,15,-1
 46 0 l 1,16,-1
 46 541 l 1,17,-1
 164 541 l 1,18,-1
 164 495 l 1,19,20
 181 507 181 507 200 516 c 128,-1,21
 219 525 219 525 239 532 c 128,-1,22
 259 539 259 539 279.5 542.5 c 128,-1,23
 300 546 300 546 320 546 c 0,24,25
 357 546 357 546 392.5 535.5 c 128,-1,26
 428 525 428 525 458.5 507 c 128,-1,27
 489 489 489 489 514.5 463.5 c 128,-1,28
 540 438 540 438 558 407 c 1,29,-1
 454 349 l 1,0,1
EndSplineSet
Validated: 1
EndChar

StartChar: T
Encoding: 84 84 25
Width: 586
Flags: W
LayerCount: 2
Fore
SplineSet
162 275 m 2,0,1
 163 244 163 244 175.5 216 c 128,-1,2
 188 188 188 188 208.5 166.5 c 128,-1,3
 229 145 229 145 257.5 132 c 128,-1,4
 286 119 286 119 317 119 c 0,5,6
 338 119 338 119 358 124.5 c 128,-1,7
 378 130 378 130 395 140 c 128,-1,8
 412 150 412 150 426.5 165 c 128,-1,9
 441 180 441 180 451 197 c 1,10,-1
 554 137 l 1,11,12
 536 106 536 106 510.5 80.5 c 128,-1,13
 485 55 485 55 454.5 37.5 c 128,-1,14
 424 20 424 20 389 10 c 128,-1,15
 354 0 354 0 317 0 c 0,16,17
 289 0 289 0 262.5 5.5 c 128,-1,18
 236 11 236 11 211.5 21.5 c 128,-1,19
 187 32 187 32 165 47 c 128,-1,20
 143 62 143 62 124 80.5 c 128,-1,21
 105 99 105 99 90.5 121 c 128,-1,22
 76 143 76 143 65.5 167.5 c 128,-1,23
 55 192 55 192 49.5 219 c 128,-1,24
 44 246 44 246 44 274 c 2,25,-1
 44 745 l 1,26,-1
 162 745 l 1,27,-1
 162 546 l 1,28,-1
 353 546 l 1,29,-1
 353 428 l 1,30,-1
 162 425 l 1,31,-1
 162 275 l 2,0,1
EndSplineSet
Validated: 1
EndChar

StartChar: s
Encoding: 115 115 26
Width: 539
Flags: W
LayerCount: 2
Fore
SplineSet
328 317 m 0,0,1
 364 313 364 313 395.5 299 c 128,-1,2
 427 285 427 285 449.5 264 c 128,-1,3
 472 243 472 243 484.5 216.5 c 128,-1,4
 497 190 497 190 497 162 c 0,5,6
 497 144 497 144 492 128.5 c 128,-1,7
 487 113 487 113 478.5 98.5 c 128,-1,8
 470 84 470 84 457 71.5 c 128,-1,9
 444 59 444 59 428.5 47.5 c 128,-1,10
 413 36 413 36 394 27.5 c 128,-1,11
 375 19 375 19 354.5 13 c 128,-1,12
 334 7 334 7 311.5 3.5 c 128,-1,13
 289 0 289 0 266 0 c 0,14,15
 231 0 231 0 195.5 10 c 128,-1,16
 160 20 160 20 130 36.5 c 128,-1,17
 100 53 100 53 75.5 73.5 c 128,-1,18
 51 94 51 94 36 114 c 1,19,-1
 135 171 l 1,20,21
 142 161 142 161 156 149.5 c 128,-1,22
 170 138 170 138 187.5 127 c 128,-1,23
 205 116 205 116 225 109 c 128,-1,24
 245 102 245 102 264 102 c 0,25,26
 284 102 284 102 303.5 106.5 c 128,-1,27
 323 111 323 111 339 120 c 128,-1,28
 355 129 355 129 365.5 140 c 128,-1,29
 376 151 376 151 376 164 c 256,30,31
 376 177 376 177 365.5 187 c 128,-1,32
 355 197 355 197 334.5 205.5 c 128,-1,33
 314 214 314 214 282.5 220.5 c 128,-1,34
 251 227 251 227 206 231 c 0,35,36
 170 235 170 235 139 249.5 c 128,-1,37
 108 264 108 264 85.5 285 c 128,-1,38
 63 306 63 306 50.5 332 c 128,-1,39
 38 358 38 358 38 387 c 0,40,41
 38 404 38 404 43 420 c 128,-1,42
 48 436 48 436 56.5 450 c 128,-1,43
 65 464 65 464 78 477 c 128,-1,44
 91 490 91 490 107 501 c 128,-1,45
 123 512 123 512 141.5 520.5 c 128,-1,46
 160 529 160 529 180.5 535.5 c 128,-1,47
 201 542 201 542 223.5 545 c 128,-1,48
 246 548 246 548 270 548 c 0,49,50
 289 548 289 548 306 545.5 c 128,-1,51
 323 543 323 543 340.5 538.5 c 128,-1,52
 358 534 358 534 375 527.5 c 128,-1,53
 392 521 392 521 407.5 513.5 c 128,-1,54
 423 506 423 506 437 497 c 128,-1,55
 451 488 451 488 463.5 478 c 128,-1,56
 476 468 476 468 485.5 457.5 c 128,-1,57
 495 447 495 447 501 436 c 1,58,-1
 402 380 l 1,59,60
 395 389 395 389 381 400.5 c 128,-1,61
 367 412 367 412 349 422.5 c 128,-1,62
 331 433 331 433 311 440 c 128,-1,63
 291 447 291 447 272 447 c 0,64,65
 251 447 251 447 231.5 442.5 c 128,-1,66
 212 438 212 438 196 429 c 128,-1,67
 180 420 180 420 170 408.5 c 128,-1,68
 160 397 160 397 160 385 c 256,69,70
 160 372 160 372 170 362 c 128,-1,71
 180 352 180 352 200 343.5 c 128,-1,72
 220 335 220 335 252 329 c 128,-1,73
 284 323 284 323 328 317 c 0,0,1
EndSplineSet
Validated: 1
EndChar

StartChar: exclam
Encoding: 33 33 27
Width: 688
Flags: W
LayerCount: 2
Fore
SplineSet
250 547 m 1,0,-1
 355 547 l 1,1,-1
 355 450 l 1,2,-1
 415 450 l 2,3,4
 441 451 441 451 464.5 459 c 128,-1,5
 488 467 488 467 505 480 c 128,-1,6
 522 493 522 493 532 510 c 128,-1,7
 542 527 542 527 542 547 c 1,8,-1
 641 547 l 1,9,-1
 641 0 l 1,10,-1
 510 0 l 1,11,-1
 510 356 l 1,12,-1
 355 356 l 1,13,-1
 355 0 l 1,14,-1
 225 0 l 1,15,-1
 225 356 l 1,16,-1
 39 356 l 1,17,-1
 39 450 l 1,18,-1
 125 450 l 2,19,20
 150 451 150 451 173 459.5 c 128,-1,21
 196 468 196 468 213 481 c 128,-1,22
 230 494 230 494 240 511 c 128,-1,23
 250 528 250 528 250 547 c 1,0,-1
EndSplineSet
Validated: 1
EndChar

StartChar: f
Encoding: 102 102 28
Width: 506
Flags: W
LayerCount: 2
Fore
SplineSet
164 471 m 1,0,-1
 354 472 l 1,1,-1
 354 353 l 1,2,-1
 165 353 l 1,3,-1
 164 0 l 1,4,-1
 46 0 l 1,5,-1
 46 471 l 2,6,7
 46 499 46 499 51.5 526 c 128,-1,8
 57 553 57 553 67.5 578 c 128,-1,9
 78 603 78 603 92.5 624.5 c 128,-1,10
 107 646 107 646 126 665 c 128,-1,11
 145 684 145 684 166.5 698.5 c 128,-1,12
 188 713 188 713 213 723.5 c 128,-1,13
 238 734 238 734 264.5 739.5 c 128,-1,14
 291 745 291 745 319 745 c 0,15,16
 362 745 362 745 402 732 c 128,-1,17
 442 719 442 719 477 695 c 1,18,-1
 407 598 l 1,19,20
 388 611 388 611 366 618.5 c 128,-1,21
 344 626 344 626 319 626 c 0,22,23
 288 626 288 626 259.5 613.5 c 128,-1,24
 231 601 231 601 210 580 c 128,-1,25
 189 559 189 559 176.5 530.5 c 128,-1,26
 164 502 164 502 164 471 c 1,0,-1
EndSplineSet
Validated: 1
EndChar

StartChar: F
Encoding: 70 70 29
Width: 585
Flags: W
LayerCount: 2
Fore
SplineSet
164 471 m 1,0,-1
 354 472 l 1,1,-1
 354 353 l 1,2,-1
 165 353 l 1,3,-1
 164 0 l 1,4,-1
 46 0 l 1,5,-1
 46 471 l 2,6,7
 46 499 46 499 51.5 526 c 128,-1,8
 57 553 57 553 67.5 578 c 128,-1,9
 78 603 78 603 92.5 624.5 c 128,-1,10
 107 646 107 646 126 665 c 128,-1,11
 145 684 145 684 166.5 698.5 c 128,-1,12
 188 713 188 713 213 723.5 c 128,-1,13
 238 734 238 734 264.5 739.5 c 128,-1,14
 291 745 291 745 319 745 c 0,15,16
 356 745 356 745 391 735.5 c 128,-1,17
 426 726 426 726 456.5 708 c 128,-1,18
 487 690 487 690 512.5 665 c 128,-1,19
 538 640 538 640 556 608 c 1,20,-1
 453 548 l 1,21,22
 443 566 443 566 428.5 580.5 c 128,-1,23
 414 595 414 595 397 605 c 128,-1,24
 380 615 380 615 360 620.5 c 128,-1,25
 340 626 340 626 319 626 c 0,26,27
 288 626 288 626 259.5 613.5 c 128,-1,28
 231 601 231 601 210 580 c 128,-1,29
 189 559 189 559 176.5 530.5 c 128,-1,30
 164 502 164 502 164 471 c 1,0,-1
EndSplineSet
Validated: 1
EndChar

StartChar: j
Encoding: 106 106 30
Width: 509
Flags: W
LayerCount: 2
Fore
SplineSet
399 744 m 0,0,1
 411 744 411 744 422.5 739.5 c 128,-1,2
 434 735 434 735 441.5 727 c 128,-1,3
 449 719 449 719 454 708 c 128,-1,4
 459 697 459 697 459 686 c 0,5,6
 459 673 459 673 454 662 c 128,-1,7
 449 651 449 651 441.5 643 c 128,-1,8
 434 635 434 635 422.5 630.5 c 128,-1,9
 411 626 411 626 399 626 c 0,10,11
 386 626 386 626 375.5 630.5 c 128,-1,12
 365 635 365 635 357.5 643 c 128,-1,13
 350 651 350 651 345 662 c 128,-1,14
 340 673 340 673 340 686 c 0,15,16
 340 698 340 698 345 708.5 c 128,-1,17
 350 719 350 719 357.5 727 c 128,-1,18
 365 735 365 735 375.5 739.5 c 128,-1,19
 386 744 386 744 399 744 c 0,0,1
459 77 m 2,20,21
 459 49 459 49 453 22.5 c 128,-1,22
 447 -4 447 -4 437 -28.5 c 128,-1,23
 427 -53 427 -53 411.5 -75 c 128,-1,24
 396 -97 396 -97 377.5 -115.5 c 128,-1,25
 359 -134 359 -134 337 -149 c 128,-1,26
 315 -164 315 -164 291 -174.5 c 128,-1,27
 267 -185 267 -185 240 -190.5 c 128,-1,28
 213 -196 213 -196 185 -196 c 0,29,30
 143 -196 143 -196 102.5 -183 c 128,-1,31
 62 -170 62 -170 28 -146 c 1,32,-1
 97 -48 l 1,33,34
 117 -62 117 -62 139 -69.5 c 128,-1,35
 161 -77 161 -77 185 -77 c 0,36,37
 217 -77 217 -77 245 -64.5 c 128,-1,38
 273 -52 273 -52 294 -30.5 c 128,-1,39
 315 -9 315 -9 327.5 19 c 128,-1,40
 340 47 340 47 340 79 c 2,41,-1
 340 548 l 1,42,-1
 459 548 l 1,43,-1
 459 77 l 2,20,21
EndSplineSet
Validated: 1
EndChar

StartChar: J
Encoding: 74 74 31
Width: 588
Flags: W
LayerCount: 2
Fore
SplineSet
479 744 m 0,0,1
 491 744 491 744 502 739.5 c 128,-1,2
 513 735 513 735 521 727 c 128,-1,3
 529 719 529 719 533.5 708 c 128,-1,4
 538 697 538 697 538 686 c 0,5,6
 538 673 538 673 533.5 662 c 128,-1,7
 529 651 529 651 521 643 c 128,-1,8
 513 635 513 635 502 630.5 c 128,-1,9
 491 626 491 626 479 626 c 0,10,11
 466 626 466 626 455.5 630.5 c 128,-1,12
 445 635 445 635 437.5 643 c 128,-1,13
 430 651 430 651 425 662 c 128,-1,14
 420 673 420 673 420 686 c 0,15,16
 420 698 420 698 425 708.5 c 128,-1,17
 430 719 430 719 437.5 727 c 128,-1,18
 445 735 445 735 455.5 739.5 c 128,-1,19
 466 744 466 744 479 744 c 0,0,1
538 78 m 2,20,21
 538 50 538 50 532.5 23.5 c 128,-1,22
 527 -3 527 -3 517 -28 c 128,-1,23
 507 -53 507 -53 492 -75 c 128,-1,24
 477 -97 477 -97 458 -115.5 c 128,-1,25
 439 -134 439 -134 417.5 -149 c 128,-1,26
 396 -164 396 -164 371.5 -174.5 c 128,-1,27
 347 -185 347 -185 320 -190.5 c 128,-1,28
 293 -196 293 -196 265 -196 c 0,29,30
 229 -196 229 -196 194 -186.5 c 128,-1,31
 159 -177 159 -177 128.5 -159 c 128,-1,32
 98 -141 98 -141 72 -115.5 c 128,-1,33
 46 -90 46 -90 28 -59 c 1,34,-1
 131 0 l 1,35,36
 142 -17 142 -17 156 -31 c 128,-1,37
 170 -45 170 -45 187.5 -55 c 128,-1,38
 205 -65 205 -65 224.5 -71 c 128,-1,39
 244 -77 244 -77 265 -77 c 0,40,41
 297 -77 297 -77 325.5 -64.5 c 128,-1,42
 354 -52 354 -52 375 -30.5 c 128,-1,43
 396 -9 396 -9 408 19 c 128,-1,44
 420 47 420 47 420 79 c 2,45,-1
 420 548 l 1,46,-1
 538 548 l 1,47,-1
 538 78 l 2,20,21
EndSplineSet
Validated: 1
EndChar

StartChar: six
Encoding: 54 54 32
Width: 624
Flags: W
LayerCount: 2
Fore
SplineSet
43 273 m 2,0,-1
 43 476 l 2,1,2
 43 504 43 504 48.5 531 c 128,-1,3
 54 558 54 558 64.5 582 c 128,-1,4
 75 606 75 606 89.5 628 c 128,-1,5
 104 650 104 650 123 669 c 128,-1,6
 142 688 142 688 164 702.5 c 128,-1,7
 186 717 186 717 210.5 727.5 c 128,-1,8
 235 738 235 738 261.5 743.5 c 128,-1,9
 288 749 288 749 316 749 c 0,10,11
 362 749 362 749 404.5 734.5 c 128,-1,12
 447 720 447 720 482.5 693 c 128,-1,13
 518 666 518 666 543 629.5 c 128,-1,14
 568 593 568 593 580 549 c 1,15,-1
 453 549 l 1,16,17
 443 568 443 568 428.5 583 c 128,-1,18
 414 598 414 598 396.5 608 c 128,-1,19
 379 618 379 618 358.5 624 c 128,-1,20
 338 630 338 630 317 630 c 0,21,22
 288 630 288 630 262 619.5 c 128,-1,23
 236 609 236 609 215.5 591.5 c 128,-1,24
 195 574 195 574 182 549.5 c 128,-1,25
 169 525 169 525 165 497 c 1,26,27
 182 509 182 509 200.5 518 c 128,-1,28
 219 527 219 527 238 534 c 128,-1,29
 257 541 257 541 277 544.5 c 128,-1,30
 297 548 297 548 317 548 c 0,31,32
 344 548 344 548 371 542.5 c 128,-1,33
 398 537 398 537 422.5 526.5 c 128,-1,34
 447 516 447 516 469 501 c 128,-1,35
 491 486 491 486 509.5 467 c 128,-1,36
 528 448 528 448 543.5 426 c 128,-1,37
 559 404 559 404 569.5 379.5 c 128,-1,38
 580 355 580 355 585.5 328.5 c 128,-1,39
 591 302 591 302 591 273 c 0,40,41
 591 246 591 246 585.5 219 c 128,-1,42
 580 192 580 192 570 168 c 128,-1,43
 560 144 560 144 544.5 122 c 128,-1,44
 529 100 529 100 510.5 81 c 128,-1,45
 492 62 492 62 470 47 c 128,-1,46
 448 32 448 32 423.5 21.5 c 128,-1,47
 399 11 399 11 372.5 5.5 c 128,-1,48
 346 0 346 0 317 0 c 256,49,50
 289 0 289 0 262 5.5 c 128,-1,51
 235 11 235 11 211 21.5 c 128,-1,52
 187 32 187 32 165 47 c 128,-1,53
 143 62 143 62 124 80.5 c 128,-1,54
 105 99 105 99 90 121 c 128,-1,55
 75 143 75 143 65 167.5 c 128,-1,56
 55 192 55 192 49 218.5 c 128,-1,57
 43 245 43 245 43 273 c 2,0,-1
160 273 m 0,58,59
 161 242 161 242 173.5 214 c 128,-1,60
 186 186 186 186 207.5 165 c 128,-1,61
 229 144 229 144 257 131.5 c 128,-1,62
 285 119 285 119 317 119 c 256,63,64
 349 119 349 119 377 131.5 c 128,-1,65
 405 144 405 144 426 165.5 c 128,-1,66
 447 187 447 187 459.5 215 c 128,-1,67
 472 243 472 243 472 274 c 0,68,69
 471 306 471 306 458.5 334 c 128,-1,70
 446 362 446 362 425 382.5 c 128,-1,71
 404 403 404 403 376.5 415.5 c 128,-1,72
 349 428 349 428 317 428 c 0,73,74
 285 428 285 428 257 415.5 c 128,-1,75
 229 403 229 403 207.5 382 c 128,-1,76
 186 361 186 361 173 333 c 128,-1,77
 160 305 160 305 160 273 c 0,58,59
EndSplineSet
Validated: 1
EndChar

StartChar: five
Encoding: 53 53 33
Width: 588
Flags: W
LayerCount: 2
Fore
SplineSet
159 626 m 1,0,-1
 159 521 l 1,1,2
 187 535 187 535 216.5 541.5 c 128,-1,3
 246 548 246 548 278 548 c 0,4,5
 306 548 306 548 333 542 c 128,-1,6
 360 536 360 536 384.5 526 c 128,-1,7
 409 516 409 516 431 501 c 128,-1,8
 453 486 453 486 471.5 467 c 128,-1,9
 490 448 490 448 505.5 426.5 c 128,-1,10
 521 405 521 405 531 380 c 128,-1,11
 541 355 541 355 547 328.5 c 128,-1,12
 553 302 553 302 553 273 c 256,13,14
 553 245 553 245 547 218.5 c 128,-1,15
 541 192 541 192 531 167.5 c 128,-1,16
 521 143 521 143 505.5 121 c 128,-1,17
 490 99 490 99 471.5 80.5 c 128,-1,18
 453 62 453 62 431 47 c 128,-1,19
 409 32 409 32 384.5 21.5 c 128,-1,20
 360 11 360 11 333.5 5.5 c 128,-1,21
 307 0 307 0 278 0 c 0,22,23
 242 0 242 0 207.5 10 c 128,-1,24
 173 20 173 20 142 37.5 c 128,-1,25
 111 55 111 55 85.5 80 c 128,-1,26
 60 105 60 105 42 137 c 1,27,-1
 145 197 l 1,28,29
 156 179 156 179 170 164.5 c 128,-1,30
 184 150 184 150 201.5 140 c 128,-1,31
 219 130 219 130 238.5 124.5 c 128,-1,32
 258 119 258 119 278 119 c 0,33,34
 310 119 310 119 338.5 131.5 c 128,-1,35
 367 144 367 144 388 165 c 128,-1,36
 409 186 409 186 421.5 214 c 128,-1,37
 434 242 434 242 434 273 c 0,38,39
 434 305 434 305 421.5 333.5 c 128,-1,40
 409 362 409 362 388 383 c 128,-1,41
 367 404 367 404 339 416 c 128,-1,42
 311 428 311 428 278 428 c 0,43,44
 257 428 257 428 240 426 c 128,-1,45
 223 424 223 424 208 417.5 c 128,-1,46
 193 411 193 411 181 400 c 128,-1,47
 169 389 169 389 159 371 c 1,48,-1
 41 412 l 1,49,-1
 42 744 l 1,50,-1
 552 744 l 1,51,-1
 552 626 l 1,52,-1
 159 626 l 1,0,-1
EndSplineSet
Validated: 1
EndChar

StartChar: nine
Encoding: 57 57 34
Width: 625
Flags: W
LayerCount: 2
Fore
SplineSet
585 476 m 2,0,-1
 586 273 l 2,1,2
 586 245 586 245 580 218 c 128,-1,3
 574 191 574 191 564 167 c 128,-1,4
 554 143 554 143 538.5 121 c 128,-1,5
 523 99 523 99 504.5 80.5 c 128,-1,6
 486 62 486 62 464 47 c 128,-1,7
 442 32 442 32 418 21.5 c 128,-1,8
 394 11 394 11 367 5.5 c 128,-1,9
 340 0 340 0 312 0 c 0,10,11
 266 0 266 0 223.5 15 c 128,-1,12
 181 30 181 30 146 56.5 c 128,-1,13
 111 83 111 83 85.5 119.5 c 128,-1,14
 60 156 60 156 48 200 c 1,15,-1
 175 200 l 1,16,17
 186 181 186 181 200.5 166 c 128,-1,18
 215 151 215 151 232.5 141 c 128,-1,19
 250 131 250 131 270 125 c 128,-1,20
 290 119 290 119 312 119 c 0,21,22
 340 119 340 119 366 129.5 c 128,-1,23
 392 140 392 140 412.5 157.5 c 128,-1,24
 433 175 433 175 446.5 199.5 c 128,-1,25
 460 224 460 224 464 252 c 1,26,27
 446 240 446 240 428 231 c 128,-1,28
 410 222 410 222 390.5 215 c 128,-1,29
 371 208 371 208 351.5 204.5 c 128,-1,30
 332 201 332 201 312 201 c 0,31,32
 284 201 284 201 257 206.5 c 128,-1,33
 230 212 230 212 205.5 222.5 c 128,-1,34
 181 233 181 233 159 248.5 c 128,-1,35
 137 264 137 264 118.5 282.5 c 128,-1,36
 100 301 100 301 84.5 323 c 128,-1,37
 69 345 69 345 59 369.5 c 128,-1,38
 49 394 49 394 43 420.5 c 128,-1,39
 37 447 37 447 37 476 c 256,40,41
 37 504 37 504 42.5 530.5 c 128,-1,42
 48 557 48 557 58.5 581.5 c 128,-1,43
 69 606 69 606 84 627.5 c 128,-1,44
 99 649 99 649 118 668.5 c 128,-1,45
 137 688 137 688 159 702.5 c 128,-1,46
 181 717 181 717 205 727.5 c 128,-1,47
 229 738 229 738 256 743.5 c 128,-1,48
 283 749 283 749 312 749 c 256,49,50
 340 749 340 749 366.5 743.5 c 128,-1,51
 393 738 393 738 417.5 727.5 c 128,-1,52
 442 717 442 717 464 702.5 c 128,-1,53
 486 688 486 688 504.5 669 c 128,-1,54
 523 650 523 650 538 628 c 128,-1,55
 553 606 553 606 563.5 582 c 128,-1,56
 574 558 574 558 579.5 531 c 128,-1,57
 585 504 585 504 585 476 c 2,0,-1
468 476 m 0,58,59
 468 507 468 507 455 535 c 128,-1,60
 442 563 442 563 420.5 584 c 128,-1,61
 399 605 399 605 371 617.5 c 128,-1,62
 343 630 343 630 312 630 c 0,63,64
 280 630 280 630 251.5 617.5 c 128,-1,65
 223 605 223 605 202 583.5 c 128,-1,66
 181 562 181 562 169 534.5 c 128,-1,67
 157 507 157 507 157 475 c 0,68,69
 157 444 157 444 169.5 415.5 c 128,-1,70
 182 387 182 387 203 366.5 c 128,-1,71
 224 346 224 346 251.5 333.5 c 128,-1,72
 279 321 279 321 312 321 c 256,73,74
 344 321 344 321 372 333.5 c 128,-1,75
 400 346 400 346 421.5 367 c 128,-1,76
 443 388 443 388 455.5 416 c 128,-1,77
 468 444 468 444 468 476 c 0,58,59
EndSplineSet
Validated: 1
EndChar

StartChar: one
Encoding: 49 49 35
Width: 311
Flags: W
LayerCount: 2
Fore
SplineSet
263 0 m 1,0,-1
 132 0 l 1,1,-1
 132 554 l 1,2,-1
 34 554 l 1,3,-1
 32 648 l 1,4,5
 58 649 58 649 81 657 c 128,-1,6
 104 665 104 665 121 678.5 c 128,-1,7
 138 692 138 692 147.5 709.5 c 128,-1,8
 157 727 157 727 157 744 c 1,9,-1
 263 744 l 1,10,-1
 263 0 l 1,0,-1
EndSplineSet
Validated: 1
EndChar

StartChar: copyright
Encoding: 169 169 36
Width: 821
Flags: W
LayerCount: 2
Fore
SplineSet
411 0 m 256,0,1
 373 0 373 0 336.5 8 c 128,-1,2
 300 16 300 16 266.5 30 c 128,-1,3
 233 44 233 44 203.5 64 c 128,-1,4
 174 84 174 84 148.5 109.5 c 128,-1,5
 123 135 123 135 103 164.5 c 128,-1,6
 83 194 83 194 69 227.5 c 128,-1,7
 55 261 55 261 47 297.5 c 128,-1,8
 39 334 39 334 39 372 c 0,9,10
 39 411 39 411 47 447 c 128,-1,11
 55 483 55 483 69 517 c 128,-1,12
 83 551 83 551 103 580.5 c 128,-1,13
 123 610 123 610 148.5 635 c 128,-1,14
 174 660 174 660 203.5 680.5 c 128,-1,15
 233 701 233 701 266.5 715 c 128,-1,16
 300 729 300 729 336.5 736.5 c 128,-1,17
 373 744 373 744 411 744 c 256,18,19
 449 744 449 744 485.5 736.5 c 128,-1,20
 522 729 522 729 555.5 715 c 128,-1,21
 589 701 589 701 618.5 680.5 c 128,-1,22
 648 660 648 660 673.5 635 c 128,-1,23
 699 610 699 610 719 580.5 c 128,-1,24
 739 551 739 551 753.5 517 c 128,-1,25
 768 483 768 483 775.5 447 c 128,-1,26
 783 411 783 411 783 372 c 0,27,28
 783 334 783 334 775.5 297.5 c 128,-1,29
 768 261 768 261 753.5 227.5 c 128,-1,30
 739 194 739 194 719 164.5 c 128,-1,31
 699 135 699 135 673.5 109.5 c 128,-1,32
 648 84 648 84 618.5 64 c 128,-1,33
 589 44 589 44 555.5 30 c 128,-1,34
 522 16 522 16 485.5 8 c 128,-1,35
 449 0 449 0 411 0 c 256,0,1
411 93 m 0,36,37
 440 93 440 93 467 98.5 c 128,-1,38
 494 104 494 104 519.5 115 c 128,-1,39
 545 126 545 126 567.5 141 c 128,-1,40
 590 156 590 156 608.5 175 c 128,-1,41
 627 194 627 194 642 216.5 c 128,-1,42
 657 239 657 239 668 264 c 128,-1,43
 679 289 679 289 684.5 316.5 c 128,-1,44
 690 344 690 344 690 372 c 0,45,46
 690 401 690 401 684.5 428.5 c 128,-1,47
 679 456 679 456 668 481 c 128,-1,48
 657 506 657 506 642 528.5 c 128,-1,49
 627 551 627 551 608.5 569.5 c 128,-1,50
 590 588 590 588 567.5 603 c 128,-1,51
 545 618 545 618 519.5 629 c 128,-1,52
 494 640 494 640 467 645.5 c 128,-1,53
 440 651 440 651 411 651 c 0,54,55
 383 651 383 651 355.5 645.5 c 128,-1,56
 328 640 328 640 302.5 629 c 128,-1,57
 277 618 277 618 255 603 c 128,-1,58
 233 588 233 588 214 569.5 c 128,-1,59
 195 551 195 551 180 528.5 c 128,-1,60
 165 506 165 506 154.5 481 c 128,-1,61
 144 456 144 456 138 428.5 c 128,-1,62
 132 401 132 401 132 372 c 0,63,64
 132 344 132 344 138 316.5 c 128,-1,65
 144 289 144 289 154.5 264 c 128,-1,66
 165 239 165 239 180 216.5 c 128,-1,67
 195 194 195 194 214 175 c 128,-1,68
 233 156 233 156 255 141 c 128,-1,69
 277 126 277 126 302.5 115 c 128,-1,70
 328 104 328 104 355.5 98.5 c 128,-1,71
 383 93 383 93 411 93 c 0,36,37
593 478 m 1,72,-1
 513 432 l 1,73,74
 505 445 505 445 494 456 c 128,-1,75
 483 467 483 467 470 474.5 c 128,-1,76
 457 482 457 482 442 486 c 128,-1,77
 427 490 427 490 411 490 c 0,78,79
 387 490 387 490 365 481 c 128,-1,80
 343 472 343 472 327 455.5 c 128,-1,81
 311 439 311 439 301.5 417.5 c 128,-1,82
 292 396 292 396 292 372 c 256,83,84
 292 348 292 348 301.5 326.5 c 128,-1,85
 311 305 311 305 327 288.5 c 128,-1,86
 343 272 343 272 365 262.5 c 128,-1,87
 387 253 387 253 411 253 c 0,88,89
 427 253 427 253 442 257.5 c 128,-1,90
 457 262 457 262 470 269.5 c 128,-1,91
 483 277 483 277 494.5 288.5 c 128,-1,92
 506 300 506 300 514 313 c 1,93,-1
 592 268 l 1,94,95
 578 244 578 244 558.5 224 c 128,-1,96
 539 204 539 204 515.5 190.5 c 128,-1,97
 492 177 492 177 465 169.5 c 128,-1,98
 438 162 438 162 411 162 c 0,99,100
 390 162 390 162 369.5 166.5 c 128,-1,101
 349 171 349 171 330 179 c 128,-1,102
 311 187 311 187 294 198.5 c 128,-1,103
 277 210 277 210 262.5 224 c 128,-1,104
 248 238 248 238 237 254.5 c 128,-1,105
 226 271 226 271 218 290.5 c 128,-1,106
 210 310 210 310 205.5 330.5 c 128,-1,107
 201 351 201 351 201 372 c 256,108,109
 201 393 201 393 205.5 414 c 128,-1,110
 210 435 210 435 218 454 c 128,-1,111
 226 473 226 473 237 489.5 c 128,-1,112
 248 506 248 506 262.5 520 c 128,-1,113
 277 534 277 534 294 546 c 128,-1,114
 311 558 311 558 330 565.5 c 128,-1,115
 349 573 349 573 369.5 577.5 c 128,-1,116
 390 582 390 582 411 582 c 0,117,118
 438 582 438 582 465 574.5 c 128,-1,119
 492 567 492 567 515.5 553.5 c 128,-1,120
 539 540 539 540 559 520.5 c 128,-1,121
 579 501 579 501 593 478 c 1,72,-1
EndSplineSet
Validated: 1
EndChar

StartChar: two
Encoding: 50 50 37
Width: 595
Flags: W
LayerCount: 2
Fore
SplineSet
248 118 m 1,0,-1
 551 118 l 1,1,-1
 551 0 l 1,2,-1
 41 0 l 1,3,-1
 40 116 l 1,4,-1
 367 346 l 2,5,6
 382 357 382 357 393.5 370 c 128,-1,7
 405 383 405 383 414 399 c 128,-1,8
 423 415 423 415 428 433 c 128,-1,9
 433 451 433 451 433 471 c 0,10,11
 433 503 433 503 420.5 531 c 128,-1,12
 408 559 408 559 387 580 c 128,-1,13
 366 601 366 601 338 613 c 128,-1,14
 310 625 310 625 277 625 c 0,15,16
 256 625 256 625 237 619.5 c 128,-1,17
 218 614 218 614 200.5 604 c 128,-1,18
 183 594 183 594 168.5 579.5 c 128,-1,19
 154 565 154 565 144 548 c 1,20,-1
 41 607 l 1,21,22
 59 638 59 638 84.5 663.5 c 128,-1,23
 110 689 110 689 141 707.5 c 128,-1,24
 172 726 172 726 206.5 735 c 128,-1,25
 241 744 241 744 277 744 c 0,26,27
 305 744 305 744 332 738.5 c 128,-1,28
 359 733 359 733 383.5 723 c 128,-1,29
 408 713 408 713 430 698 c 128,-1,30
 452 683 452 683 470.5 664.5 c 128,-1,31
 489 646 489 646 504.5 624 c 128,-1,32
 520 602 520 602 530 577.5 c 128,-1,33
 540 553 540 553 546 526 c 128,-1,34
 552 499 552 499 552 471 c 0,35,36
 552 436 552 436 543 403.5 c 128,-1,37
 534 371 534 371 518.5 342 c 128,-1,38
 503 313 503 313 481.5 289 c 128,-1,39
 460 265 460 265 433 246 c 2,40,-1
 248 118 l 1,0,-1
EndSplineSet
Validated: 1
EndChar

StartChar: w
Encoding: 119 119 38
Width: 1070
Flags: W
LayerCount: 2
Fore
SplineSet
532 103 m 1,0,1
 448 0 448 0 318 0 c 0,2,3
 204 0 204 0 124 80 c 128,-1,4
 44 160 44 160 44 274 c 2,5,-1
 44 548 l 1,6,-1
 164 548 l 1,7,-1
 164 272 l 2,8,9
 164 208 164 208 209 164 c 128,-1,10
 254 120 254 120 318 120 c 0,11,12
 380 120 380 120 427.5 169.5 c 128,-1,13
 475 219 475 219 475 274 c 2,14,-1
 474 548 l 1,15,-1
 591 548 l 1,16,-1
 591 274 l 2,17,18
 591 218 591 218 637 169 c 128,-1,19
 683 120 683 120 746 120 c 256,20,21
 809 120 809 120 854 164 c 128,-1,22
 899 208 899 208 900 272 c 2,23,-1
 900 548 l 1,24,-1
 1021 548 l 1,25,-1
 1021 274 l 2,26,27
 1021 160 1021 160 940 80 c 128,-1,28
 859 0 859 0 746 0 c 0,29,30
 615 0 615 0 532 103 c 1,0,1
EndSplineSet
Validated: 1
EndChar
